<?xml version="1.0" encoding="utf-8"?>

<!DOCTYPE svg PUBLIC "-//W3C//DTD SVG 1.1//EN" "http://www.w3.org/Graphics/SVG/1.1/DTD/svg11.dtd">
<svg version="1.1" id="Layer_1" xmlns="http://www.w3.org/2000/svg" xmlns:xlink="http://www.w3.org/1999/xlink" x="0px" y="0px"
	 viewBox="0 0 1826 1744.473" enable-background="new 0 0 1826 1744.473" xml:space="preserve">
<g>
	<g id="XMLID_1_">
		<path fill="#FFFFFF" d="M314.163,637.328c5.092,13.987,16.952,22.332,31.715,22.332c2.694,0,5.494-0.279,8.415-0.837
			L340.271,669.2l17.972,13.935c5.319,4.587,58.886,55.006,98.841,92.72c-99.382,103.315-194.325,164.547-255.889,164.547
			c-13.525,0-54.683,0-61.145-70.24l-0.017-0.122c-6.636-67.013,17.885-156.481,70.911-258.74
			c47.943-92.467,116.744-190.192,193.706-275.16c109.122-120.467,216.457-195.302,280.13-195.302
			c18.12,0,43.626,5.084,55.826,49.05l0.044,0.157c15.958,55.459-6.479,151.24-63.211,270.39c-1.264-0.619-2.616-1.273-4.064-1.979
			c-16.149-7.865-49.756-24.224-116.996-56.296l-24.782-11.824l-0.087,14.998c-0.427-1.875-0.95-3.697-1.596-5.45
			c-5.136-13.952-17.039-22.288-31.846-22.288c-16.115,0-36.144,9.74-61.232,29.77l-0.34,0.288
			c-38.656,32.508-73.396,76.213-97.839,123.066C327.444,552.221,302.609,605.648,314.163,637.328z"/>
		<path d="M1697.916,1198.6c72.917,30.834,24.477,201.886-76.256,197.77c-4.299-0.837-8.868-1.169-12.653-3.558
			C1652.851,1348.297,1694.262,1269.852,1697.916,1198.6z"/>
		<path d="M1647.837,1108.244c12.164,11.973,33.101,26.84,31.715,76.771c-4.299,91.726-80.146,212.132-141.875,227.619
			c-24.416,7.299-46.547-6.566-96.496-38.447c-9.191-5.834-17.78-12.539-26.683-18.774c-0.017-0.445-0.052-1.334-0.07-1.779
			c88.569-67.711,148.188-175.316,153.699-294.981C1595.961,1069.588,1627.153,1089.696,1647.837,1108.244z"/>
		<path d="M1372.781,1349.483c-219.875,155.347-582.959,427.472-608.142,244.03c-1.753-10.97-1.7-22.149-0.078-33.127
			c17.606-132.745,169.866-17.039,348.53-192.948c-6.331-17.859-12.173-35.9-18.05-53.916
			c20.762-17.187,47.855-46.216,64.851-70.929c102.748,46.408,197.325,97.193,212.838,105.216
			C1372.746,1348.227,1372.773,1349.064,1372.781,1349.483z"/>
		<path d="M1390.692,1335.635c-310.79-168.776-645.647-293.891-991.832-366.746c-13.682-3.078-27.538-5.406-41.158-8.659
			c221.637-144.752,441.939-483.708,463.399-702.074c139.529,342.714,397.301,609.189,724.493,792.196
			C1535.183,1176.504,1480.029,1270.654,1390.692,1335.635z"/>
		<path d="M447.728,420.993c118.653-94.752,68.347,92.955-49.355,193.026C277.33,714.282,326.72,522.773,447.728,420.993z"/>
		<path fill="#FFFFFF" d="M457.084,775.854c-39.955-37.714-93.522-88.133-98.841-92.72L340.271,669.2l14.022-10.377
			c-2.921,0.558-5.72,0.837-8.415,0.837c-14.763,0-26.622-8.345-31.715-22.332c-11.554-31.68,13.281-85.107,24.495-106.611
			c24.442-46.853,59.183-90.557,97.839-123.066l0.34-0.288c25.087-20.03,45.117-29.77,61.232-29.77
			c14.807,0,26.709,8.336,31.846,22.288c0.645,1.753,1.168,3.575,1.596,5.45l0.087-14.998l24.782,11.824
			c67.24,32.072,100.847,48.431,116.996,56.296c1.448,0.706,2.799,1.36,4.064,1.979c56.732-119.15,79.169-214.931,63.211-270.39
			l-0.044-0.157c-12.199-43.966-37.705-49.05-55.826-49.05c-63.674,0-171.008,74.835-280.13,195.302
			c-76.963,84.968-145.764,182.693-193.706,275.16c-53.026,102.26-77.547,191.727-70.911,258.74l0.017,0.122
			c6.462,70.24,47.62,70.24,61.145,70.24C262.759,940.401,357.702,879.169,457.084,775.854z M398.372,614.019
			c117.703-100.071,168.008-287.778,49.355-193.026C326.72,522.773,277.33,714.282,398.372,614.019z M369.16,669.522
			c4.186,3.253,108.913,102.164,112.61,105.652c-186.312,199.313-345.74,241.675-359.081,96.583
			C92.038,562.545,684.537-77.399,757.419,185.222c29.953,104.117-69.08,291.231-71.469,297.858
			c-5.79-1.116,3.915,2.058-137.07-65.182c-0.297,48.187-94.76,199.182-170.319,246C375.474,665.851,372.108,667.342,369.16,669.522
			z"/>
		<path d="M94.07,861.424c6.836-248.32,359.221-742.3,599.335-770.736c289.339-31.593-13.193,685.375-391.581,883.59
			c-58.424,30.119-134.881,52.904-179.109,4.011C87.687,938.683,92.797,866.664,94.07,861.424z M757.419,185.222
			c-72.882-262.621-665.38,377.324-634.73,686.535c13.342,145.092,172.77,102.73,359.081-96.583
			c-3.697-3.488-108.425-102.399-112.61-105.652c2.947-2.18,6.313-3.671,9.4-5.624c75.559-46.818,170.023-197.813,170.319-246
			c140.985,67.24,131.28,64.066,137.07,65.182C688.339,476.453,787.372,289.339,757.419,185.222z"/>
		<path fill="#FFFFFF" d="M1621.659,1396.37c100.734,4.116,149.173-166.936,76.256-197.77
			c-3.654,71.251-45.065,149.696-88.909,194.212C1612.791,1395.202,1617.36,1395.533,1621.659,1396.37z M1679.551,1185.015
			c1.386-49.931-19.55-64.798-31.715-76.771c-20.684-18.547-51.875-38.656-79.71-49.591
			c-5.511,119.665-65.13,227.27-153.699,294.981c0.017,0.445,0.052,1.334,0.07,1.779c8.903,6.235,17.492,12.94,26.683,18.774
			c49.948,31.88,72.08,45.745,96.496,38.447C1599.406,1397.146,1675.252,1276.74,1679.551,1185.015z M301.824,974.278
			C680.212,776.063,982.744,59.095,693.405,90.688C453.291,119.124,100.907,613.104,94.07,861.424
			c-1.273,5.241-6.383,77.259,28.645,116.866C166.943,1027.182,243.4,1004.397,301.824,974.278z M764.639,1593.512
			c25.183,183.443,388.267-88.682,608.142-244.03c-0.009-0.419-0.035-1.256-0.052-1.674
			c-15.513-8.022-110.09-58.808-212.838-105.216c-16.995,24.713-44.088,53.741-64.851,70.929
			c5.877,18.016,11.72,36.057,18.05,53.916c-178.664,175.909-330.924,60.203-348.53,192.948
			C762.939,1571.363,762.886,1582.542,764.639,1593.512z M398.861,968.889c346.184,72.856,681.042,197.97,991.832,366.746
			c89.336-64.981,144.49-159.131,154.902-285.284C1218.402,867.345,960.63,600.87,821.101,258.156
			c-21.46,218.367-241.762,557.322-463.399,702.074C371.323,963.483,385.179,965.811,398.861,968.889z M837.251,251.581
			c131.655,323.364,378.719,593.807,714.553,782.255l0.017-0.323l22.672,8.912c28.183,11.066,61.537,31.802,84.985,52.835
			l0.297,0.27l0.288,0.288c0.985,0.968,2.032,1.953,3.122,2.991c12.67,11.973,33.52,31.706,33.851,80.486l7.665,3.244
			c19.672,8.319,33.781,24.643,40.792,47.201c5.895,18.966,6.479,41.472,1.683,65.095c-6.13,30.276-20.265,58.773-39.781,80.25
			c-23.064,25.384-51.474,38.804-82.177,38.804c-1.439,0-2.834-0.035-4.273-0.096l-1.325-0.052l-1.299-0.253
			c-0.732-0.14-1.465-0.262-2.197-0.384c-4.412-0.75-10.455-1.77-16.437-5.546l-8.903-5.624
			c-16.315,14.031-32.796,23.5-48.492,27.52c-5.799,1.7-11.484,2.52-17.37,2.52c-25.619,0-49.599-15.304-93.13-43.086
			c-6.418-4.081-12.478-8.485-18.338-12.749c-3.087-2.241-5.999-4.36-8.964-6.444l-7.072-4.953l-0.418-10.447l-0.061-1.639
			l-4.892,3.558l-1.692-0.916l0.07,3.069l-7.586,5.354c-14.257,10.08-28.942,20.518-44.481,31.567
			c-84.078,59.776-179.379,127.53-269.361,181.629c-106.681,64.136-183.94,95.318-236.182,95.318c-23.5,0-42.737-6.235-57.177-18.53
			c-15.251-12.975-24.756-32.369-28.253-57.63c-1.962-12.391-1.997-25.21-0.096-38.106c4.718-35.421,18.504-58.625,43.365-73.013
			c21.303-12.33,48.021-16.42,78.951-21.155c61.79-9.453,138.23-21.146,223.337-101.178c-4.578-13.298-8.938-26.683-13.193-39.72
			l-4.97-15.251l9.139-7.569c20.483-16.952,46.303-45.178,61.476-67.188c-242.277-110.16-493.622-192.956-750.13-246.942
			l-0.235-0.052c-5.903-1.325-12.051-2.555-17.998-3.741c-7.63-1.517-15.53-3.096-23.378-4.97l-14.972-3.567
			c-9.583,5.703-19.175,11.074-28.767,16.106l-0.096,0.052c-44.263,22.82-83.948,34.392-117.964,34.392
			c-33.938,0-61.555-11.502-82.073-34.182l-0.131-0.148C72.253,947.56,74.441,876.422,76.656,859.959
			c1.91-61.598,24.146-140.078,64.345-227.043c38.176-82.613,90.505-168.994,151.318-249.802
			c62.566-83.145,130.382-155.234,196.122-208.469c74.12-60.037,142.389-94.106,202.906-101.274l0.157-0.017
			c6.775-0.741,13.42-1.116,19.733-1.116c29.151,0,53.462,7.865,72.254,23.37c17.754,14.641,30.128,35.752,36.764,62.732
			c6.47,26.3,7.403,58.476,2.93,95.284L837.251,251.581z"/>
	</g>
</g>
</svg>
